<?xml version="1.0" encoding="UTF-8"?>
<svg version="1.1" xmlns="http://www.w3.org/2000/svg" width="314" height="314">
<path d="M0 0 C103.62 0 207.24 0 314 0 C314 103.62 314 207.24 314 314 C210.38 314 106.76 314 0 314 C0 210.38 0 106.76 0 0 Z " fill="#FEFEFE" transform="translate(0,0)"/>
<path d="M0 0 C4.11294983 0.77117809 5.40529416 2.31758745 8 5.5625 C8.47098854 8.29356422 8.63815399 10.3890871 8.56762695 13.10668945 C8.56835709 13.84869095 8.56908722 14.59069244 8.56983948 15.35517883 C8.56636916 17.79613573 8.5275385 20.23515977 8.48828125 22.67578125 C8.47895104 24.37256325 8.47183591 26.06935875 8.46684265 27.76615906 C8.44778894 32.22333225 8.39870285 36.67968551 8.34332275 41.13653564 C8.29209474 45.68791615 8.26932107 50.23942967 8.24414062 54.79101562 C8.19058199 63.7152032 8.10528938 72.63878331 8 81.5625 C9.03133057 80.80129349 10.06266113 80.04008698 11.12524414 79.2558136 C12.49099409 78.25030292 13.85680114 77.24486978 15.22265625 76.23950195 C15.90090454 75.73858284 16.57915283 75.23766373 17.2779541 74.72156525 C21.7122521 71.46064061 26.15245447 68.37218863 31 65.75 C31.65895264 65.38874023 32.31790527 65.02748047 32.99682617 64.65527344 C54.12635291 53.33039167 84.78821613 43.72367784 109 47.5625 C114.58761206 50.73772412 114.58761206 50.73772412 116 53.5625 C116.25193577 58.55675609 116.08979928 63.5643103 116 68.5625 C115.98743164 69.54476562 115.97486328 70.52703125 115.96191406 71.5390625 C115.91350064 74.75608528 115.83495754 77.97125029 115.75 81.1875 C115.73598145 82.2305127 115.72196289 83.27352539 115.70751953 84.34814453 C115.5602513 88.85484538 115.46420998 91.77646378 113.140625 95.7109375 C110.21117205 98.24480739 107.6676576 98.67906665 103.9296875 98.95703125 C77.07644294 101.15719204 51.83472518 107.99238353 33.28613281 129.00585938 C19.29431912 145.94052227 11.57635187 168.31586624 9.546875 190.01171875 C9.4742041 190.76799561 9.4015332 191.52427246 9.32666016 192.3034668 C9.1959193 193.76804931 9.08497384 195.23458684 8.99755859 196.70239258 C8.51386801 202.29015142 6.83140986 204.71937329 3 208.5625 C-1.93714677 211.03107338 -9.56487226 209.87538238 -15.05664062 209.91259766 C-16.84518466 209.92913423 -18.63366323 209.95639412 -20.421875 209.99462891 C-23.00555573 210.04957034 -25.58768772 210.07129843 -28.171875 210.0859375 C-28.96583679 210.10860687 -29.75979858 210.13127625 -30.57781982 210.15463257 C-34.65453746 210.13922057 -37.23933503 209.79290752 -40.48925781 207.21728516 C-44.49072495 202.98625115 -44.137172 199.18358032 -44.10424805 193.67041016 C-44.10338259 192.85601345 -44.10251713 192.04161674 -44.10162544 191.20254135 C-44.0974167 188.46051374 -44.08589148 185.71856781 -44.07421875 182.9765625 C-44.06917318 181.0136423 -44.06451875 179.05072106 -44.06022644 177.08779907 C-44.05005636 172.83427643 -44.03667533 168.58077784 -44.02142334 164.32727051 C-43.99781578 157.45093184 -43.99013625 150.57461407 -43.98291016 143.69824219 C-43.96967864 132.8165167 -43.92945553 121.93512849 -43.86789131 111.05356979 C-43.83319903 104.81039954 -43.80843809 98.56749045 -43.80444336 92.32421875 C-43.80016186 86.14596986 -43.77180148 79.96826036 -43.72656822 73.79018021 C-43.7136826 71.47071088 -43.70925341 69.15117705 -43.71384621 66.83167648 C-43.71875555 63.61683568 -43.69267858 60.40360666 -43.65942383 57.18896484 C-43.66804947 56.2561116 -43.67667511 55.32325836 -43.68556213 54.36213684 C-43.54749303 46.37709507 -40.88953281 40.04423388 -35.7890625 33.8984375 C-35.07492188 33.25132813 -34.36078125 32.60421875 -33.625 31.9375 C-30.88456469 29.35404543 -28.25413323 26.80564637 -25.8125 23.9375 C-22.26012339 19.8083846 -18.57811747 15.80606744 -14.875 11.8125 C-13.97744995 10.83676025 -13.97744995 10.83676025 -13.06176758 9.84130859 C-4.72887727 0.88666449 -4.72887727 0.88666449 0 0 Z " fill="#184DAA" transform="translate(107,41.4375)"/>
<path d="M0 0 C6.81066949 3.64166712 12.18723195 8.87361126 17.52734375 14.37109375 C19.36048916 16.2079128 21.24962586 17.89484165 23.2265625 19.57421875 C26.82173016 22.65983509 30.14993728 25.95619829 33.4765625 29.32421875 C36.70053159 32.58805761 39.91174203 35.79252106 43.4140625 38.76171875 C47.74916626 42.4451994 51.68564325 46.50406351 55.67919922 50.54858398 C58.70536996 53.59910933 61.76612534 56.53457511 65.0390625 59.32421875 C72.07034939 65.37439585 72.07034939 65.37439585 73.1015625 70.32421875 C72.39356244 73.72261902 71.25789229 75.14252466 68.54650879 77.27215576 C64.11353849 79.5252403 59.0739625 79.03142895 54.2109375 78.98828125 C53.02236145 78.99306488 51.8337854 78.99784851 50.60919189 79.0027771 C48.09768347 79.00617442 45.58613071 78.99698398 43.07470703 78.97607422 C39.25321301 78.94940474 35.43468186 78.97578271 31.61328125 79.0078125 C29.16666024 79.00450653 26.72004106 78.99809643 24.2734375 78.98828125 C22.57450348 79.00346298 22.57450348 79.00346298 20.84124756 79.01895142 C11.41093971 78.8814616 3.83998368 76.13419106 -3.0859375 69.57421875 C-3.900625 68.80980469 -4.7153125 68.04539062 -5.5546875 67.2578125 C-7.9395892 64.92596475 -10.27826241 62.54974661 -12.6171875 60.171875 C-13.35251709 59.42711914 -14.08784668 58.68236328 -14.84545898 57.91503906 C-16.30402072 56.43184215 -17.75452473 54.94066381 -19.19555664 53.44042969 C-25.68345944 46.80872325 -31.99863104 40.90390952 -41.578125 40.234375 C-43.74201379 40.24589807 -43.74201379 40.24589807 -46.5234375 41.32421875 C-45.24948853 27.93006078 -37.69124363 13.98842048 -28.5234375 4.32421875 C-19.4072515 -3.17388035 -10.91919804 -4.81729325 0 0 Z " fill="#184DAA" transform="translate(172.5234375,171.67578125)"/>
<path d="M0 0 C2.14628601 1.55854797 2.14628601 1.55854797 4 4 C4.42049164 6.65503398 4.5978282 8.90590616 4.59692383 11.56323242 C4.61948494 12.69822174 4.61948494 12.69822174 4.64250183 13.85614014 C4.68556981 16.35615569 4.6982765 18.85511188 4.70703125 21.35546875 C4.72243145 23.09939464 4.73828187 24.8433166 4.75456238 26.5872345 C4.78302733 30.24485025 4.79443251 33.90209373 4.79614258 37.55981445 C4.80131314 42.23014676 4.86619092 46.89753961 4.94643116 51.56710339 C4.99862352 55.17134774 5.00970386 58.77489294 5.00964928 62.37948036 C5.01618548 64.09984507 5.0373451 65.82022246 5.07383156 67.54021263 C5.33425477 80.97032859 5.33425477 80.97032859 2.01657104 86.01719666 C-0.21078271 88.25593035 -2.46311153 90.12883723 -5 92 C-28.38082851 117.79829071 -41.14955237 151.75128164 -45 186 C-45.33 186 -45.66 186 -46 186 C-46.1169928 167.91904007 -46.20506601 149.83817887 -46.25906086 131.75692177 C-46.28480214 123.36076806 -46.31987417 114.96485005 -46.37719727 106.56884766 C-46.42715768 99.24772966 -46.45932063 91.92678242 -46.47044247 84.60549867 C-46.47694 80.73169389 -46.49212455 76.85837746 -46.52865028 72.98472977 C-46.56281039 69.33206587 -46.57301328 65.68008738 -46.56553841 62.0272789 C-46.567551 60.06102463 -46.59434086 58.09484351 -46.62210083 56.12878418 C-46.56942577 46.99573979 -44.66158686 40.41201809 -38.7890625 33.3359375 C-37.71785156 32.36527344 -37.71785156 32.36527344 -36.625 31.375 C-33.88456469 28.79154543 -31.25413323 26.24314637 -28.8125 23.375 C-25.26012339 19.2458846 -21.57811747 15.24356744 -17.875 11.25 C-16.97744995 10.27426025 -16.97744995 10.27426025 -16.06176758 9.27880859 C-6.41165181 -1.09134499 -6.41165181 -1.09134499 0 0 Z " fill="#11377C" transform="translate(110,42)"/>
<path d="M0 0 C1.875 1.5 1.875 1.5 3 3 C0.01758453 3.77321882 -2.97580475 4.41196203 -6 5 C-6 5.66 -6 6.32 -6 7 C-6.804375 7.12375 -7.60875 7.2475 -8.4375 7.375 C-9.7059375 7.684375 -9.7059375 7.684375 -11 8 C-11.33 8.66 -11.66 9.32 -12 10 C-14.93704456 12.0095568 -16.39222485 13 -20 13 C-18.04468135 11.0177733 -16.08594334 9.03914884 -14.125 7.0625 C-13.56941406 6.49853516 -13.01382813 5.93457031 -12.44140625 5.35351562 C-8.11037995 0.9963988 -6.21949738 -0.50771407 0 0 Z " fill="#2354AB" transform="translate(110,42)"/>
<path d="M0 0 C2.33944736 0.28730055 4.6739143 0.61936779 7 1 C6.67 1.66 6.34 2.32 6 3 C4.68 3 3.36 3 2 3 C2 3.66 2 4.32 2 5 C0.68 5 -0.64 5 -2 5 C-1.125 1.125 -1.125 1.125 0 0 Z " fill="#184BA7" transform="translate(102,44)"/>
<path d="M0 0 C0 1.32 0 2.64 0 4 C-3.28976808 5.09658936 -4.71303767 4.79953138 -8 4 C-5.29881977 1.17603885 -4.05589853 0 0 0 Z " fill="#154193" transform="translate(79,75)"/>
<path d="M0 0 C1.33332095 2.6666419 0.67102033 4.16680303 0 7 C-2.475 6.01 -2.475 6.01 -5 5 C-3.35 3.35 -1.7 1.7 0 0 Z " fill="#2556AF" transform="translate(128,113)"/>
</svg>
